<mxfile host="app.diagrams.net" agent="Mozilla/5.0 (Windows NT 10.0; Win64; x64) AppleWebKit/537.36 (KHTML, like Gecko) Chrome/139.0.0.0 Safari/537.36" version="28.1.2">
  <diagram name="PÃ¡gina-1" id="aEJzc5Zqnv4OwEgxN_t_">
    <mxGraphModel dx="872" dy="473" grid="1" gridSize="10" guides="1" tooltips="1" connect="1" arrows="1" fold="1" page="1" pageScale="1" pageWidth="827" pageHeight="1169" math="0" shadow="0">
      <root>
        <mxCell id="0" />
        <mxCell id="1" parent="0" />
        <mxCell id="Y0mAPRSTsMdzHMWOPFTO-8" style="edgeStyle=orthogonalEdgeStyle;rounded=0;orthogonalLoop=1;jettySize=auto;html=1;entryX=0.5;entryY=0;entryDx=0;entryDy=0;" edge="1" parent="1" source="Y0mAPRSTsMdzHMWOPFTO-1" target="Y0mAPRSTsMdzHMWOPFTO-7">
          <mxGeometry relative="1" as="geometry" />
        </mxCell>
        <mxCell id="Y0mAPRSTsMdzHMWOPFTO-1" value="" style="strokeWidth=2;html=1;shape=mxgraph.flowchart.start_2;whiteSpace=wrap;" vertex="1" parent="1">
          <mxGeometry x="399" y="30" width="30" height="30" as="geometry" />
        </mxCell>
        <mxCell id="Y0mAPRSTsMdzHMWOPFTO-6" style="edgeStyle=orthogonalEdgeStyle;rounded=0;orthogonalLoop=1;jettySize=auto;html=1;entryX=0.5;entryY=0;entryDx=0;entryDy=0;" edge="1" parent="1" source="Y0mAPRSTsMdzHMWOPFTO-2" target="Y0mAPRSTsMdzHMWOPFTO-4">
          <mxGeometry relative="1" as="geometry" />
        </mxCell>
        <mxCell id="Y0mAPRSTsMdzHMWOPFTO-2" value="Inserir Nome" style="rounded=1;whiteSpace=wrap;html=1;" vertex="1" parent="1">
          <mxGeometry x="240" y="230" width="110" height="30" as="geometry" />
        </mxCell>
        <mxCell id="Y0mAPRSTsMdzHMWOPFTO-4" value="Inserir&lt;span style=&quot;background-color: transparent; color: light-dark(rgb(0, 0, 0), rgb(255, 255, 255));&quot;&gt;&amp;nbsp;Senha&lt;/span&gt;" style="rounded=1;whiteSpace=wrap;html=1;" vertex="1" parent="1">
          <mxGeometry x="240" y="312" width="110" height="30" as="geometry" />
        </mxCell>
        <mxCell id="Y0mAPRSTsMdzHMWOPFTO-7" value="Selecionar Tipo Cadastro" style="rounded=1;whiteSpace=wrap;html=1;" vertex="1" parent="1">
          <mxGeometry x="356" y="90" width="116" height="40" as="geometry" />
        </mxCell>
        <mxCell id="Y0mAPRSTsMdzHMWOPFTO-10" style="edgeStyle=orthogonalEdgeStyle;rounded=0;orthogonalLoop=1;jettySize=auto;html=1;" edge="1" parent="1" source="Y0mAPRSTsMdzHMWOPFTO-9" target="Y0mAPRSTsMdzHMWOPFTO-7">
          <mxGeometry relative="1" as="geometry" />
        </mxCell>
        <mxCell id="Y0mAPRSTsMdzHMWOPFTO-9" value="" style="strokeWidth=2;html=1;shape=mxgraph.flowchart.annotation_2;align=left;labelPosition=right;pointerEvents=1;rotation=90;" vertex="1" parent="1">
          <mxGeometry x="389" y="130" width="50" height="100" as="geometry" />
        </mxCell>
        <mxCell id="Y0mAPRSTsMdzHMWOPFTO-11" value="" style="endArrow=classic;html=1;rounded=0;exitX=0.76;exitY=1.02;exitDx=0;exitDy=0;exitPerimeter=0;entryX=0.591;entryY=0.133;entryDx=0;entryDy=0;entryPerimeter=0;" edge="1" parent="1" target="Y0mAPRSTsMdzHMWOPFTO-2">
          <mxGeometry width="50" height="50" relative="1" as="geometry">
            <mxPoint x="363" y="193" as="sourcePoint" />
            <mxPoint x="362.04999999999995" y="255.01" as="targetPoint" />
          </mxGeometry>
        </mxCell>
        <mxCell id="Y0mAPRSTsMdzHMWOPFTO-12" value="" style="endArrow=classic;html=1;rounded=0;exitX=0.72;exitY=0;exitDx=0;exitDy=0;exitPerimeter=0;entryX=0.355;entryY=0.033;entryDx=0;entryDy=0;entryPerimeter=0;" edge="1" parent="1" source="Y0mAPRSTsMdzHMWOPFTO-9" target="Y0mAPRSTsMdzHMWOPFTO-13">
          <mxGeometry width="50" height="50" relative="1" as="geometry">
            <mxPoint x="464" y="210" as="sourcePoint" />
            <mxPoint x="463" y="250" as="targetPoint" />
          </mxGeometry>
        </mxCell>
        <mxCell id="Y0mAPRSTsMdzHMWOPFTO-13" value="Inserir Nome" style="rounded=1;whiteSpace=wrap;html=1;" vertex="1" parent="1">
          <mxGeometry x="480" y="240" width="110" height="30" as="geometry" />
        </mxCell>
        <mxCell id="Y0mAPRSTsMdzHMWOPFTO-14" value="Inserir&lt;span style=&quot;background-color: transparent; color: light-dark(rgb(0, 0, 0), rgb(255, 255, 255));&quot;&gt;&amp;nbsp;Senha&lt;/span&gt;" style="rounded=1;whiteSpace=wrap;html=1;" vertex="1" parent="1">
          <mxGeometry x="480" y="312" width="110" height="30" as="geometry" />
        </mxCell>
        <mxCell id="Y0mAPRSTsMdzHMWOPFTO-15" value="Cliente Comum" style="text;html=1;align=center;verticalAlign=middle;whiteSpace=wrap;rounded=0;" vertex="1" parent="1">
          <mxGeometry x="180" y="180" width="100" height="30" as="geometry" />
        </mxCell>
        <mxCell id="Y0mAPRSTsMdzHMWOPFTO-16" value="Loja de Produtos" style="text;html=1;align=center;verticalAlign=middle;whiteSpace=wrap;rounded=0;" vertex="1" parent="1">
          <mxGeometry x="540" y="180" width="100" height="30" as="geometry" />
        </mxCell>
      </root>
    </mxGraphModel>
  </diagram>
</mxfile>
